<svg xmlns="http://www.w3.org/2000/svg" viewBox="0 0 64 64" fill="none">
  <rect width="64" height="64" rx="14" fill="#0f0a1e"/>
  <!-- Book body -->
  <rect x="12" y="14" width="18" height="32" rx="3" fill="#4c1d95"/>
  <rect x="12" y="14" width="18" height="32" rx="3" fill="url(#bookgrad)"/>
  <!-- Book spine -->
  <rect x="28" y="14" width="4" height="32" fill="#6d28d9"/>
  <!-- Book right page -->
  <rect x="32" y="14" width="18" height="32" rx="3" fill="#1e1b4b"/>
  <line x1="36" y1="22" x2="46" y2="22" stroke="#4338ca" stroke-width="2" stroke-linecap="round"/>
  <line x1="36" y1="27" x2="46" y2="27" stroke="#4338ca" stroke-width="2" stroke-linecap="round"/>
  <line x1="36" y1="32" x2="42" y2="32" stroke="#4338ca" stroke-width="2" stroke-linecap="round"/>
  <!-- AI spark -->
  <circle cx="46" cy="44" r="10" fill="#7c3aed" opacity="0.3"/>
  <circle cx="46" cy="44" r="6" fill="url(#sparkgrad)"/>
  <path d="M46 39 L47.5 43 L52 44 L47.5 45 L46 49 L44.5 45 L40 44 L44.5 43 Z" fill="white"/>
  <defs>
    <linearGradient id="bookgrad" x1="12" y1="14" x2="30" y2="46" gradientUnits="userSpaceOnUse">
      <stop offset="0%" stop-color="#7c3aed"/>
      <stop offset="100%" stop-color="#4c1d95"/>
    </linearGradient>
    <linearGradient id="sparkgrad" x1="40" y1="38" x2="52" y2="50" gradientUnits="userSpaceOnUse">
      <stop offset="0%" stop-color="#a78bfa"/>
      <stop offset="100%" stop-color="#7c3aed"/>
    </linearGradient>
  </defs>
</svg>
